<svg width="56" height="56" viewBox="0 0 56 56" fill="none" xmlns="http://www.w3.org/2000/svg">
<g clip-path="url(#clip0_4_673)">
<path d="M52.5454 15.4545C52.5454 28.2727 39.8182 52.6364 28 52.6364C16.1818 52.6364 3.45453 28.2727 3.45453 15.4545C3.45453 2.63636 16.1818 0 28 0C39.8182 0 52.5454 2.63636 52.5454 15.4545Z" fill="#2B2D42"/>
<path d="M52.5454 18.8182C52.5454 31.6364 39.8182 56 28 56C16.1818 56 3.45453 31.6364 3.45453 18.8182C3.45453 6.00001 16.1818 3.27274 28 3.27274C39.8182 3.27274 52.5454 6.00001 52.5454 18.8182Z" fill="#2B2D42"/>
<path d="M52.5454 16.8182C52.5454 29.6364 39.8182 54 28 54C16.1818 54 3.45453 29.6364 3.45453 16.8182C3.45453 4.00001 16.1818 1.27274 28 1.27274C39.8182 1.27274 52.5454 3.9091 52.5454 16.8182Z" fill="#2B2D42"/>
<path d="M28 1.27274C39.8182 1.27274 52.5455 3.9091 52.5455 16.8182C52.5455 29.7273 39.8182 54 28 54" fill="#2B2D42"/>
<path d="M28 37.5455C35.5312 37.5455 41.6364 31.4403 41.6364 23.9091C41.6364 16.3779 35.5312 10.2727 28 10.2727C20.4689 10.2727 14.3636 16.3779 14.3636 23.9091C14.3636 31.4403 20.4689 37.5455 28 37.5455Z" fill="#2B2D42"/>
<path d="M28 10.2727C35.5455 10.2727 41.6364 16.3636 41.6364 23.9091C41.6364 31.4546 35.5455 37.5455 28 37.5455" fill="#2B2D42"/>
<path d="M28 30.2727C31.5145 30.2727 34.3636 27.4236 34.3636 23.9091C34.3636 20.3946 31.5145 17.5455 28 17.5455C24.4855 17.5455 21.6364 20.3946 21.6364 23.9091C21.6364 27.4236 24.4855 30.2727 28 30.2727Z" fill="#2B2D42"/>
<path d="M28 17.5454C31.5455 17.5454 34.3636 20.3636 34.3636 23.9091C34.3636 27.4545 31.5455 30.2727 28 30.2727" fill="#2B2D42"/>
<g clip-path="url(#clip1_4_673)">
<path d="M28.6082 13.7952C28.6488 13.0771 29.0811 12.4903 29.659 12.3117L29.6607 12.1663C29.3353 11.3722 29.1369 10.3351 29.1478 9.18847C29.1588 8.04116 29.376 7.00786 29.7157 6.22009C29.7157 6.22009 29.7177 5.9988 29.7203 5.72509C29.7227 5.45156 29.3379 5.22666 28.8604 5.22244L26.0506 5.19605C25.5734 5.19141 25.1843 5.40699 25.1819 5.67697L25.1772 6.16628C25.5049 6.96129 25.7052 8.0033 25.6945 9.15654C25.6837 10.3087 25.4643 11.3469 25.1216 12.1365L25.1205 12.2374C25.7456 12.386 26.2136 13.0141 26.2423 13.7735L26.1498 21.2986C25.9746 21.4497 25.5789 21.5769 24.6853 21.3755C23.0875 21.0156 21.0595 21.9082 21.9154 25.2171C22.7714 28.526 24.1247 27.8837 21.0507 31.6922L21.0525 31.6926C19.8936 32.9624 19.1928 34.5697 19.1761 36.3243C19.1374 40.486 22.9542 43.8959 27.7015 43.9406C32.4484 43.9849 36.3284 40.6463 36.3668 36.4842C36.3675 36.4097 36.3643 36.3349 36.3625 36.2607L36.3646 36.2615C36.3646 36.2615 36.3638 36.2331 36.3611 36.1848C36.3489 35.8354 36.3092 35.4927 36.2442 35.1569C36.0316 33.8593 35.4492 31.7227 33.8623 30.4514C31.4663 28.5326 33.6023 26.6312 33.9105 25.2545C34.2188 23.8783 34.054 23.1135 33.5411 22.5419C33.5411 22.5419 33.2299 24.2386 31.4076 24.2216C29.9428 24.2079 29.0351 22.6258 28.6996 21.6462L28.6082 13.7952Z" fill="#EDF2F4"/>
</g>
</g>
<defs>
<clipPath id="clip0_4_673">
<rect width="56" height="56" fill="white"/>
</clipPath>
<clipPath id="clip1_4_673">
<rect width="31.9181" height="31.9181" fill="white" transform="translate(5 25.358) rotate(-44.4657)"/>
</clipPath>
</defs>
</svg>
